#!OML:ASF F:\VICON\USERDATA\INSTALL\rory3\rory3.ASF
:FULLY-SPECIFIED
:DEGREES
2615
root 0.87551 10.2266 -6.99137 344.461 -66.9591 -359.313
lowerback 42.024 1.24396 1.28362
upperback 14.9458 0.321601 -0.384698
thorax -3.29779 -0.457975 -1.14234
lowerneck -12.0264 2.33491 -3.76741
upperneck -19.3764 1.93948 -6.22412
head -4.39353 1.11902 -1.45171
rclavicle -2.30217e-014 1.28465e-014
rhumerus 35.5902 33.1112 -60.2803
rradius 82.2293
rwrist -20.354
rhand -42.9714 0.741293
rfingers 7.12502
rthumb -15.8308 -28.6315
lclavicle -2.30217e-014 1.28465e-014
lhumerus 35.3885 -31.9859 61.8145
lradius 78.6335
lwrist 51.0088
lhand -37.502 23.5731
lfingers 7.12502
lthumb -10.5589 53.2879
rfemur -82.706 -12.6934 11.5698
rtibia 94.8584
rfoot -6.18212 -10.3642
rtoes 7.37416
lfemur -78.7649 15.7743 -7.74633
ltibia 90.1169
lfoot 0.359396 -9.41749
ltoes -14.1158
2616
root 0.87214 10.2269 -6.99151 344.457 -66.9621 -359.293
lowerback 42.0141 1.21481 1.23507
upperback 14.9344 0.266785 -0.406206
thorax -3.30977 -0.485435 -1.11991
lowerneck -11.9958 2.30096 -4.02829
upperneck -19.5576 1.9061 -6.10821
head -4.47486 1.11857 -1.37223
rclavicle -1.16786e-014 -2.21148e-015
rhumerus 35.5891 33.089 -60.4784
rradius 82.2868
rwrist -20.1161
rhand -42.7904 0.602351
rfingers 7.12502
rthumb -15.6565 -28.7842
lclavicle -1.16786e-014 -2.21148e-015
lhumerus 35.3278 -31.8978 61.879
lradius 78.6486
lwrist 50.5495
lhand -37.1708 23.0685
lfingers 7.12502
lthumb -10.2394 52.7993
rfemur -82.7715 -12.7778 11.6826
rtibia 94.9835
rfoot -6.65379 -10.667
rtoes 6.6862
lfemur -78.774 15.8212 -7.73042
ltibia 90.1694
lfoot 0.318201 -9.15408
ltoes -12.31
2617
root 0.869776 10.2291 -6.99144 344.251 -66.9713 -359.076
lowerback 42.0022 1.17718 1.18298
upperback 14.9381 0.193962 -0.483967
thorax -3.30483 -0.519214 -1.14858
lowerneck -11.9068 2.26253 -4.24611
upperneck -19.8178 1.84918 -6.01241
head -4.59698 1.10662 -1.30962
rclavicle -1.38652e-014 -1.5704e-014
rhumerus 35.5734 33.0636 -60.6537
rradius 82.3787
rwrist -19.9319
rhand -42.5201 0.482513
rfingers 7.12502
rthumb -15.3962 -28.9242
lclavicle -1.38652e-014 -1.5704e-014
lhumerus 35.3071 -31.847 61.8452
lradius 78.6957
lwrist 50.1679
lhand -36.7116 23.2734
lfingers 7.12502
lthumb -9.79636 53.0255
rfemur -82.7963 -12.842 11.6825
rtibia 95.066
rfoot -7.09021 -10.9746
rtoes 6.32594
lfemur -78.7112 15.8572 -7.76852
ltibia 90.2261
lfoot 0.165221 -8.8753
ltoes -11.0494
2618
root 0.869924 10.2307 -6.99044 344.182 -67.0237 -359.025
lowerback 42.0521 1.16912 1.20607
upperback 14.9058 0.192592 -0.507702
thorax -3.35445 -0.51775 -1.18454
lowerneck -11.8401 2.19528 -4.33066
upperneck -19.9927 1.71597 -6.15676
head -4.6802 1.0532 -1.35005
rclavicle 5.10628e-014 -2.1419e-014
rhumerus 35.4122 32.9976 -60.7614
rradius 82.5251
rwrist -19.7657
rhand -42.6611 0.381537
rfingers 7.12502
rthumb -15.532 -29.0147
lclavicle 5.10628e-014 -2.1419e-014
lhumerus 35.3269 -31.951 61.7162
lradius 78.8559
lwrist 50.0453
lhand -36.6412 23.4189
lfingers 7.12502
lthumb -9.72847 53.1742
rfemur -82.7979 -12.8235 11.6609
rtibia 95.1261
rfoot -7.47768 -11.191
rtoes 7.08752
lfemur -78.6823 15.9865 -7.80255
ltibia 90.292
lfoot -0.216225 -8.80429
ltoes -11.2876
2619
root 0.871021 10.232 -6.98993 344.196 -67.0812 -359.06
lowerback 42.1546 1.20946 1.19793
upperback 14.8542 0.24389 -0.465335
thorax -3.43908 -0.495711 -1.15384
lowerneck -11.9464 2.11423 -4.34102
upperneck -19.9972 1.56621 -6.41233
head -4.66543 0.982715 -1.43518
rclavicle 2.48978e-014 -3.3197e-014
rhumerus 35.2023 32.933 -60.8166
rradius 82.7031
rwrist -19.6464
rhand -43.0814 0.474805
rfingers 7.12502
rthumb -15.9367 -28.8895
lclavicle 2.48978e-014 -3.3197e-014
lhumerus 35.3429 -32.0586 61.7185
lradius 79.0243
lwrist 50.0174
lhand -36.7774 23.4391
lfingers 7.12502
lthumb -9.85986 53.1882
rfemur -82.7902 -12.787 11.6719
rtibia 95.1556
rfoot -7.69872 -11.3914
rtoes 7.76885
lfemur -78.6834 16.117 -7.80916
ltibia 90.3474
lfoot -0.5236 -8.82485
ltoes -11.4368
2620
root 0.871625 10.2339 -6.99176 344.065 -67.0993 -358.906
lowerback 42.1882 1.27958 1.04551
upperback 14.8319 0.275066 -0.412031
thorax -3.47446 -0.489706 -1.03076
lowerneck -12.1124 2.1026 -4.32171
upperneck -19.9866 1.51375 -6.67498
head -4.6325 0.957052 -1.52714
rclavicle -2.50966e-015 3.32219e-014
rhumerus 35.107 32.9137 -60.8585
rradius 82.82
rwrist -19.5384
rhand -43.1618 0.539303
rfingers 7.12502
rthumb -16.0141 -28.8188
lclavicle -2.50966e-015 3.32219e-014
lhumerus 35.383 -32.0758 61.7938
lradius 79.1072
lwrist 49.8763
lhand -37.0225 23.196
lfingers 7.12502
lthumb -10.0964 52.9338
rfemur -82.8134 -12.7974 11.6519
rtibia 95.1698
rfoot -7.80317 -11.6167
rtoes 7.77116
lfemur -78.6762 16.1588 -7.85239
ltibia 90.3669
lfoot -0.71303 -8.71262
ltoes -11.3762
